<svg width="30" height="30" viewBox="0 0 30 30" fill="none" xmlns="http://www.w3.org/2000/svg">
<path d="M17.931 8.9707L9.23511 28.702C12.8365 30.1796 16.8722 30.1942 20.4842 28.7427L18.3281 9.03151C18.1946 9.0212 18.062 9.00088 17.9315 8.9707" fill="#005697"/>
<path d="M16.955 8.38037L0.620605 19.1515C1.73746 22.886 4.26577 26.0382 7.66883 27.9391L17.2599 8.65536C17.1443 8.58072 17.0413 8.48803 16.955 8.38082" fill="#005697"/>
<path d="M19.0706 8.92965L22.1321 27.9697C25.5742 26.0685 28.1258 22.8845 29.2313 19.111L19.5588 8.6958C19.4076 8.79588 19.2433 8.87458 19.0706 8.92965" fill="#005697"/>
<path d="M17.1682 5.46178L14.0458 0C10.1122 0.227637 6.42924 2.00514 3.80371 4.9431L16.497 6.46874C16.6134 6.07285 16.8473 5.72167 17.1678 5.46178" fill="#005697"/>
<path d="M27.1177 6.29541L20.4455 7.10026C20.4287 7.47458 20.3091 7.83705 20.0999 8.1479L29.6605 17.21C29.7786 16.4426 29.8397 15.6676 29.8434 14.8912C29.8481 11.8126 28.8956 8.80872 27.1177 6.29541" fill="#005697"/>
<path d="M16.4462 7.24169L2.57332 6.50928C0.889924 8.98321 -0.00699865 11.9079 4.11246e-05 14.9003C0.000940877 15.7242 0.0689819 16.5467 0.203489 17.3595L16.5481 7.74606C16.4939 7.58132 16.4598 7.41061 16.4467 7.23766" fill="#005697"/>
<path d="M18.4807 5.00392C18.8712 5.01417 19.2506 5.13662 19.5735 5.35664C19.8963 5.57667 20.149 5.88496 20.3014 6.24472L25.997 4.89213C23.3909 1.99815 19.7537 0.241685 15.8667 0L17.9723 5.05489C18.1398 5.02233 18.31 5.00527 18.4807 5.00392" fill="#005697"/>
</svg>
